<svg xmlns="http://www.w3.org/2000/svg" viewBox="0 0 661.8 614.57"><defs><style>.cls-1{fill:#fff;}</style></defs><g id="Layer_2" data-name="Layer 2"><g id="Layer_1-2" data-name="Layer 1"><g id="BmAKJ0"><path class="cls-1" d="M58.59,197.37c-9.35,4.94-17.83,9.9-26.71,14A22.45,22.45,0,0,1,0,191.62C-.39,181.21,4.74,174,13.77,169.18c11.31-6,22.54-12.22,33.79-18.35Q158.74,90.26,269.9,29.7c15.79-8.6,31.71-17,47.35-25.83,9.35-5.3,18-5,27.36.07q151,82.44,302.17,164.61c11.7,6.37,16.93,16.16,14.39,26.76-3.62,15.17-18.65,22.45-32.63,15.56-8.46-4.18-16.67-8.85-25.42-13.53l-7.31,51.8q-6.34,45-12.68,89.89c-4.5,32.11-8.9,64.23-13.4,96.34-4.83,34.41-9.94,68.78-14.5,103.23-1.94,14.71-5.06,28.81-13.67,41.21-13.51,19.48-32.4,30.05-55.53,33.65-7.11,1.1-14.27,1.07-21.43,1.06q-136,0-271.94.05c-25.25,0-47.58-7-65.44-25.55-12.4-12.89-18-28.72-20.34-46.18-4-30.33-8.47-60.6-12.7-90.9Q87.49,404,80.86,356.07c-4.16-29.63-8.43-59.25-12.6-88.89C65,244.14,61.87,221.08,58.59,197.37ZM330.66,568.53q68.74,0,137.47,0a83.62,83.62,0,0,0,14.4-1.19c13.87-2.42,24.05-12.27,26.08-25.46,1.46-9.53,2.73-19.09,4-28.65,4.79-34.58,9.5-69.17,14.36-103.75,5.49-39,11.12-78,16.65-117q8-56.54,15.94-113.1c.51-3.6-.05-5.91-3.77-7.93Q445.67,111.68,335.7,51.51c-3.41-1.86-6-2-9.58,0Q216.14,111.61,106,171.37c-3.64,2-4.43,4.14-3.89,7.86q6.93,47.64,13.66,95.3,9.76,69.64,19.34,139.32Q144,477.58,153,541.28c1.53,11,7.16,18.71,17.34,23.22,7.33,3.24,15,4.06,22.9,4Q261.93,568.52,330.66,568.53Z"/><path class="cls-1" d="M445.92,313.67c-.35,60.3-49.1,116.39-119.22,114.42-62.74-1.77-113.81-53.52-111-122.45C218,247.83,265.62,194.31,333.92,196,397.21,197.46,445.68,248.21,445.92,313.67Zm-45.75-1.12c0-39-30.85-70.51-69.19-70.42-38.67.09-69.4,30.68-69.67,68.43C261,350,289.86,381.94,330.54,382,373,382.12,400.28,347.59,400.17,312.55Z"/></g></g></g></svg>