<?xml version="1.0" encoding="UTF-8" standalone="no"?>
<svg
   viewBox="0 0 24 24"
   aria-hidden="true"
   class="r-jwli3a r-4qtqp9 r-yyyyoo r-1472mwg r-dnmrzs r-bnwqim r-1plcrui r-lrvibr r-lrsllp"
   version="1.1"
   id="svg6"
   sodipodi:docname="twite.svg"
   inkscape:version="1.1 (c68e22c387, 2021-05-23)"
   xmlns:inkscape="http://www.inkscape.org/namespaces/inkscape"
   xmlns:sodipodi="http://sodipodi.sourceforge.net/DTD/sodipodi-0.dtd"
   xmlns="http://www.w3.org/2000/svg"
   xmlns:svg="http://www.w3.org/2000/svg">
  <defs
     id="defs10" />
  <sodipodi:namedview
     id="namedview8"
     pagecolor="#ffffff"
     bordercolor="#666666"
     borderopacity="1.0"
     inkscape:pageshadow="2"
     inkscape:pageopacity="0.0"
     inkscape:pagecheckerboard="0"
     showgrid="false"
     inkscape:zoom="36.375"
     inkscape:cx="6.5841924"
     inkscape:cy="12"
     inkscape:window-width="2560"
     inkscape:window-height="1369"
     inkscape:window-x="1072"
     inkscape:window-y="-8"
     inkscape:window-maximized="1"
     inkscape:current-layer="g4" />
  <g
     id="g4">
    <path
       d="M8.8 7.2H5.6V3.9c0-.4-.3-.8-.8-.8s-.7.4-.7.8v3.3H.8c-.4 0-.8.3-.8.8s.3.8.8.8h3.3v3.3c0 .4.3.8.8.8s.8-.3.8-.8V8.7H9c.4 0 .8-.3.8-.8s-.5-.7-1-.7zm15-4.9v-.1h-.1c-.1 0-9.2 1.2-14.4 11.7-3.8 7.6-3.6 9.9-3.3 9.9.3.1 3.4-6.5 6.7-9.2 5.2-1.1 6.6-3.6 6.6-3.6s-1.5.2-2.1.2c-.8 0-1.4-.2-1.7-.3 1.3-1.2 2.4-1.5 3.5-1.7.9-.2 1.8-.4 3-1.2 2.2-1.6 1.9-5.5 1.8-5.7z"
       id="path2"
       style="fill:#ffffff" />
  </g>
</svg>
